<svg xmlns="http://www.w3.org/2000/svg" width="157" height="158" viewBox="0 0 157 158">
  <g id="Group_172" data-name="Group 172" transform="translate(-26.026 -25.769)">
    <g id="Icons_Logo" data-name="Icons Logo" transform="translate(76.218 75.903)">
      <path id="Path_513" data-name="Path 513" d="M90.865,102.069a14.279,14.279,0,0,1-4.119-.617,13.167,13.167,0,0,1-4.613-2.481,14.656,14.656,0,0,1,0-22.565s.5-.356.667-.336c.228.027.374.461.426.649.075.277.112.454-.068.6a13.238,13.238,0,0,0-.33,20.471,11.85,11.85,0,0,0,3.919,2.225,12.421,12.421,0,0,0,11.692-1.922l.261-.218a10.492,10.492,0,0,0,3.622-10.086,8.005,8.005,0,0,0-.37-1.38A9.936,9.936,0,0,0,86.52,81.575l-.24.2a7.538,7.538,0,0,0-2.732,5.039,7.626,7.626,0,0,0,1.538,5.547,7.239,7.239,0,0,0,4.907,2.805,7.147,7.147,0,0,0,5.183-1.407l.213-.179a4.886,4.886,0,0,0,.76-6.736,4.592,4.592,0,0,0-6.56-.78,2.049,2.049,0,0,0-.745,1.374,2.076,2.076,0,0,0,.419,1.512,1.98,1.98,0,0,0,1.715.776,2.077,2.077,0,0,0,1.155-.488s.318-.4.465-.379c.2.024.5.643.5.643a.561.561,0,0,1-.088.773,3.455,3.455,0,0,1-1.777.805A3.3,3.3,0,0,1,88.218,89.8a3.48,3.48,0,0,1-.65-2.837A3.7,3.7,0,0,1,89.146,84.7a5.906,5.906,0,0,1,8.049,1.292,6.3,6.3,0,0,1-.478,8.207l.023.03-.516.431A8.53,8.53,0,0,1,84.04,93.212a9.02,9.02,0,0,1-1.818-6.556,8.923,8.923,0,0,1,2.718-5.5l-.016-.02.522-.437a11.209,11.209,0,0,1,17.247,4.022,11.364,11.364,0,0,1,1.114,4.223,11.812,11.812,0,0,1-3.763,9.57l.011.015-.517.433a13.678,13.678,0,0,1-8.673,3.112" transform="translate(-76.833 -76.069)" fill="#111412"/>
      <path id="Path_514" data-name="Path 514" d="M132.021,84.391a2.692,2.692,0,0,0-1.3-1.436,2.933,2.933,0,0,0-.29-1.428,3.089,3.089,0,0,0-1-1.1,3.6,3.6,0,0,1-.538-.472,6.006,6.006,0,0,1-.452-.625,4.332,4.332,0,0,0-1.014-1.173,4.453,4.453,0,0,0-2.09-.862,6.794,6.794,0,0,0-1-.036,2.766,2.766,0,0,1-1.411-.216c-.092-.05-.184-.1-.277-.157a2.415,2.415,0,0,0-1.878-.442,1.872,1.872,0,0,0-1.241,1.418l-.016.045-.3.86c-.081-.174-.162-.347-.244-.515-.062-.129-.122-.265-.183-.4a5.159,5.159,0,0,0-.743-1.316,1.336,1.336,0,0,0-1.6-.341,3.115,3.115,0,0,0-.339.157,1.014,1.014,0,0,1-.377.143,1.246,1.246,0,0,1-.543-.125l-.221-.078a1.927,1.927,0,0,0-1.687.091,2.826,2.826,0,0,0-.793.8,1.838,1.838,0,0,1-.5.534c-.148.087-.3.158-.463.233a3.591,3.591,0,0,0-1.1.7,9.965,9.965,0,0,0-1.092,1.371c-.11.159-.22.314-.332.467l0,0a3.678,3.678,0,0,0-.9,2.287.75.75,0,0,0,.407.637l.128.067c3.629,1.915,7.743,4.083,8.964,8.184a.663.663,0,0,0,.058.136c-.362.989-.652,1.956-.936,2.6a32.886,32.886,0,0,1-1.7,3.535c-.649,1.082-1.3,2.156-2.042,3.256a.58.58,0,0,0,.3.811.651.651,0,0,0,.284.066c.219,0,.373-.157.547-.325,1.077-1.039,3.2-5.672,3.582-6.779.28-.814.624-1.908.928-2.833a.727.727,0,0,0,.388-.372,5.851,5.851,0,0,1,3.558-2.685c1.124-.411,2.3-.767,3.438-1.11q.709-.214,1.416-.432l2.662-.832c.065-.021.132-.041.2-.061a2.5,2.5,0,0,0,1.545-.926,1.587,1.587,0,0,0,.211-1.323m-1.112.758a1.7,1.7,0,0,1-.945.477c-.075.022-.149.043-.22.066l-2.662.831q-.7.219-1.406.43c-1.152.348-2.343.708-3.5,1.128a14.752,14.752,0,0,0-2.373,1.222c.035-.084.209-.429.279-.562.4-.766.765-1.243.938-1.629a.364.364,0,0,0-.209-.484.4.4,0,0,0-.479.2,10.792,10.792,0,0,1-.7,1.057,30.989,30.989,0,0,0,.333-3.1.424.424,0,0,0-.407-.439.432.432,0,0,0-.472.381c-.1.973-.24,2.463-.416,3.416a14.875,14.875,0,0,0-1.28-3.708.42.42,0,0,0-.575-.139.435.435,0,0,0-.168.585,10.144,10.144,0,0,1,1.209,4.681c-1.816-3.356-5.44-5.277-8.7-7a2.989,2.989,0,0,1,.691-1.455c.116-.159.23-.321.344-.483v0a4.11,4.11,0,0,0,.479.293l.225.127a.412.412,0,0,0,.54-.1.436.436,0,0,0-.026-.577c-.057-.058-.113-.119-.17-.179a4.454,4.454,0,0,0-.421-.412,5.162,5.162,0,0,1,.345-.387,2.64,2.64,0,0,1,.8-.488c.114-.052.231-.109.349-.17a14.152,14.152,0,0,0,1.467,1.983.417.417,0,0,0,.533.065.377.377,0,0,0,.136-.483h0a14.538,14.538,0,0,0-1.307-2.195l-.015-.017c.076-.094.147-.188.214-.279a1.934,1.934,0,0,1,.489-.524.881.881,0,0,1,.794.009c.065.02.128.043.189.067a2.225,2.225,0,0,0,1,.186,1.954,1.954,0,0,0,.781-.259,2.546,2.546,0,0,1,.235-.11c.278-.108.348-.028.41.045a4.371,4.371,0,0,1,.576,1.052c.066.149.131.3.2.435.236.489.47,1,.7,1.534a.608.608,0,0,0,1.132-.036l.083-.237c.2-.571.4-1.142.6-1.711l.016-.048c.17-.48.262-.681.5-.743.329-.086.623.071,1.074.332.1.06.206.12.31.174a2.607,2.607,0,0,0,.528.213,14.585,14.585,0,0,0-.515,1.71.409.409,0,0,0,.292.5.439.439,0,0,0,.539-.286,17.418,17.418,0,0,1,.714-1.789c.127,0,.252,0,.373,0a5.837,5.837,0,0,1,.841.026,3.333,3.333,0,0,1,1.289.461,11.751,11.751,0,0,0-1.768,2.325.411.411,0,0,0,.133.548.428.428,0,0,0,.571-.069c.136-.159.271-.317.406-.477.48-.566.937-1.1,1.438-1.625.1.128.186.261.282.406a6.783,6.783,0,0,0,.534.731,4.446,4.446,0,0,0,.694.62,2.153,2.153,0,0,1,.7.724,1.879,1.879,0,0,1,.162,1.133.6.6,0,0,0,.337.635,1.891,1.891,0,0,1,1.027.928.528.528,0,0,1-.089.463" transform="translate(-76.833 -76.069)" fill="#111412"/>
      <path id="Path_515" data-name="Path 515" d="M100.119,125.229a8.409,8.409,0,0,0-3.81-1.967,5.122,5.122,0,0,0,2.078-1.223,2.691,2.691,0,0,0,.787-1.98c-.058-1.986-2.246-3.624-5.352-4.275a6.912,6.912,0,0,0,.814-.52,4.661,4.661,0,0,0,1.914-3.045,3.446,3.446,0,0,0-.872-2.933c-1.029-1.046-2.8-1.421-5.275-1.112-1.53.191-6.518,1.059-6.388,4.295.058,1.539,1.471,2.73,3.321,3.414a11.327,11.327,0,0,0-2.475.874c-1.6.816-2.683,1.993-2.683,3.454,0,.835.424,2.479,3.51,3.308a14.617,14.617,0,0,0-4.213,1.651c-1.836,1.131-2.891,2.644-2.891,4.15,0,.553.215,1.96,2.194,3.111,1.876,1.086,4.819,1.638,8.746,1.638,10.881,0,12.06-4.1,12.06-5.86a4.288,4.288,0,0,0-1.465-2.98m-14.8-12.813c-.045-1.1,1.309-2.446,5.249-2.94a12.192,12.192,0,0,1,1.406-.092,3.862,3.862,0,0,1,2.781.829,2.018,2.018,0,0,1,.534,1.447,3.521,3.521,0,0,1-.026.388c-.235,1.763-2.357,3.243-4.559,3.164-2.819-.1-5.333-1.408-5.385-2.8m-1.836,7.795c0-1.822,3.295-3.394,7.2-3.421,4.181-.019,7.143,1.717,7.189,3.309a1.354,1.354,0,0,1-.417,1.026c-.573.592-2.246,1.585-7.085,1.585h-.006c-3.171,0-6.883-.651-6.883-2.5m15.166,10.668c-1.439,1.006-4.135,1.875-9.123,1.875-4.6,0-6.948-.8-8.094-1.461-1.433-.835-1.544-1.723-1.544-1.973,0-1.572,2.253-4.683,10.771-5.176.488-.033.957-.046,1.393-.046,4.3,0,6.324,1.276,7.177,2.091a2.912,2.912,0,0,1,1.054,2.02,3.283,3.283,0,0,1-1.634,2.67" transform="translate(-76.833 -76.069)" fill="#111412"/>
      <path id="Path_516" data-name="Path 516" d="M119.338,134.069a1.2,1.2,0,0,1-.89-.4l-10.856-12.059a8.482,8.482,0,0,1-1.054-10.1,6.926,6.926,0,0,1,5.9-3.445h0a6.757,6.757,0,0,1,5.053,2.307l1.844,2.049,1.844-2.048a6.748,6.748,0,0,1,5.051-2.308h0a6.746,6.746,0,0,1,5.051,2.311,8.41,8.41,0,0,1,0,11l-11.058,12.286a1.2,1.2,0,0,1-.89.4m-6.9-24.578h0a5.349,5.349,0,0,0-3.994,1.839,6.959,6.959,0,0,0,0,9.1l10.894,12.1,10.7-11.888a7.059,7.059,0,0,0,.931-8.312,5.528,5.528,0,0,0-4.734-2.841h0a5.341,5.341,0,0,0-3.994,1.837l-2.373,2.635a.71.71,0,0,1-1.056,0l-2.373-2.635a5.347,5.347,0,0,0-4-1.837" transform="translate(-76.833 -76.069)" fill="#111412"/>
    </g>
    <text id="_" data-name=" " transform="matrix(0.625, 0.78, -0.78, 0.625, 149.172, 65.634)" fill="#111412" font-size="20" font-family="Rubik-Medium, Rubik" font-weight="500"><tspan x="0" y="0"> </tspan></text>
    <text id="_2" data-name=" " transform="matrix(0.566, 0.825, -0.825, 0.566, 151.942, 69.068)" fill="#111412" font-size="20" font-family="Rubik-Medium, Rubik" font-weight="500"><tspan x="0" y="0"> </tspan></text>
    <text id="ב" transform="translate(154.551 72.43) rotate(62.81)" fill="#111412" font-size="20" font-family="Rubik-Medium, Rubik" font-weight="500"><tspan x="0" y="0">ב</tspan></text>
    <text id="ל" transform="translate(159.318 81.535) rotate(72.295)" fill="#111412" font-size="20" font-family="Rubik-Medium, Rubik" font-weight="500"><tspan x="0" y="0">ל</tspan></text>
    <text id="ה" transform="translate(162.576 91.209) rotate(82.964)" fill="#111412" font-size="20" font-family="Rubik-Medium, Rubik" font-weight="500"><tspan x="0" y="0">ה</tspan></text>
    <text id="_3" data-name=" " transform="translate(163.85 103.556) rotate(90.907)" fill="#111412" font-size="20" font-family="Rubik-Medium, Rubik" font-weight="500"><tspan x="0" y="0"> </tspan></text>
    <text id="ה-2" data-name="ה" transform="translate(164.1 107.804) rotate(98.923)" fill="#111412" font-size="20" font-family="Rubik-Medium, Rubik" font-weight="500"><tspan x="0" y="0">ה</tspan></text>
    <text id="ב-2" data-name="ב" transform="translate(162.18 119.915) rotate(109.987)" fill="#111412" font-size="20" font-family="Rubik-Medium, Rubik" font-weight="500"><tspan x="0" y="0">ב</tspan></text>
    <text id="ו" transform="translate(158.274 130.145) rotate(117.584)" fill="#111412" font-size="20" font-family="Rubik-Medium, Rubik" font-weight="500"><tspan x="0" y="0">ו</tspan></text>
    <text id="ג" transform="matrix(-0.563, 0.827, -0.827, -0.563, 156.039, 134.707)" fill="#111412" font-size="20" font-family="Rubik-Medium, Rubik" font-weight="500"><tspan x="0" y="0">ג</tspan></text>
    <text id="ב-3" data-name="ב" transform="translate(151.101 142.111) rotate(133.727)" fill="#111412" font-size="20" font-family="Rubik-Medium, Rubik" font-weight="500"><tspan x="0" y="0">ב</tspan></text>
    <text id="_4" data-name=" " transform="translate(143.77 149.78) rotate(140.858)" fill="#111412" font-size="20" font-family="Rubik-Medium, Rubik" font-weight="500"><tspan x="0" y="0"> </tspan></text>
    <text id="_5" data-name=" " transform="translate(140.383 152.582) rotate(145.103)" fill="#111412" font-size="20" font-family="Rubik-Medium, Rubik" font-weight="500"><tspan x="0" y="0"> </tspan></text>
    <text id="_6" data-name=" " transform="translate(136.782 155.133) rotate(149.359)" fill="#111412" font-size="20" font-family="Rubik-Medium, Rubik" font-weight="500"><tspan x="0" y="0"> </tspan></text>
    <text id="_7" data-name=" " transform="matrix(-0.896, 0.445, -0.445, -0.896, 133.015, 157.397)" fill="#111412" font-size="20" font-family="Rubik-Medium, Rubik" font-weight="500"><tspan x="0" y="0"> </tspan></text>
    <text id="_8" data-name=" " transform="matrix(-0.926, 0.378, -0.378, -0.926, 129.101, 159.372)" fill="#111412" font-size="20" font-family="Rubik-Medium, Rubik" font-weight="500"><tspan x="0" y="0"> </tspan></text>
    <text id="_9" data-name=" " transform="translate(125.042 161.057) rotate(161.997)" fill="#111412" font-size="20" font-family="Rubik-Medium, Rubik" font-weight="500"><tspan x="0" y="0"> </tspan></text>
    <text id="_10" data-name=" " transform="translate(120.871 162.436) rotate(166.203)" fill="#111412" font-size="20" font-family="Rubik-Medium, Rubik" font-weight="500"><tspan x="0" y="0"> </tspan></text>
    <text id="_11" data-name=" " transform="translate(116.605 163.5) rotate(170.412)" fill="#111412" font-size="20" font-family="Rubik-Medium, Rubik" font-weight="500"><tspan x="0" y="0"> </tspan></text>
    <text id="_12" data-name=" " transform="translate(112.267 164.25) rotate(174.638)" fill="#111412" font-size="20" font-family="Rubik-Medium, Rubik" font-weight="500"><tspan x="0" y="0"> </tspan></text>
    <text id="_13" data-name=" " transform="matrix(-1, 0.02, -0.02, -1, 107.919, 164.672)" fill="#111412" font-size="20" font-family="Rubik-Medium, Rubik" font-weight="500"><tspan x="0" y="0"> </tspan></text>
    <text id="_14" data-name=" " transform="translate(103.534 164.771) rotate(-176.918)" fill="#111412" font-size="20" font-family="Rubik-Medium, Rubik" font-weight="500"><tspan x="0" y="0"> </tspan></text>
    <text id="_15" data-name=" " transform="translate(99.152 164.541) rotate(-172.668)" fill="#111412" font-size="20" font-family="Rubik-Medium, Rubik" font-weight="500"><tspan x="0" y="0"> </tspan></text>
    <text id="ת" transform="translate(94.991 164.378) rotate(-164.146)" fill="#111412" font-size="20" font-family="Rubik-Medium, Rubik" font-weight="500"><tspan x="0" y="0">ת</tspan></text>
    <text id="י" transform="translate(82.207 160.424) rotate(-155.454)" fill="#111412" font-size="20" font-family="Rubik-Medium, Rubik" font-weight="500"><tspan x="0" y="0">י</tspan></text>
    <text id="ש" transform="matrix(-0.833, -0.554, 0.554, -0.833, 77.786, 158.823)" fill="#111412" font-size="20" font-family="Rubik-Medium, Rubik" font-weight="500"><tspan x="0" y="0">ש</tspan></text>
    <text id="ג-2" data-name="ג" transform="translate(66.186 150.689) rotate(-135.291)" fill="#111412" font-size="20" font-family="Rubik-Medium, Rubik" font-weight="500"><tspan x="0" y="0">ג</tspan></text>
    <text id="ר" transform="translate(60.435 145.31) rotate(-126.903)" fill="#111412" font-size="20" font-family="Rubik-Medium, Rubik" font-weight="500"><tspan x="0" y="0">ר</tspan></text>
    <text id="_16" data-name=" " transform="matrix(-0.496, -0.868, 0.868, -0.496, 54.156, 136.676)" fill="#111412" font-size="20" font-family="Rubik-Medium, Rubik" font-weight="500"><tspan x="0" y="0"> </tspan></text>
    <text id="ת-2" data-name="ת" transform="translate(51.732 133.212) rotate(-111.335)" fill="#111412" font-size="20" font-family="Rubik-Medium, Rubik" font-weight="500"><tspan x="0" y="0">ת</tspan></text>
    <text id="ל-2" data-name="ל" transform="translate(47.038 121.055) rotate(-100.464)" fill="#111412" font-size="20" font-family="Rubik-Medium, Rubik" font-weight="500"><tspan x="0" y="0">ל</tspan></text>
    <text id="פ" transform="matrix(-0.005, -1, 1, -0.005, 45.081, 111.014)" fill="#111412" font-size="20" font-family="Rubik-Medium, Rubik" font-weight="500"><tspan x="0" y="0">פ</tspan></text>
    <text id="ט" transform="translate(44.906 99.851) rotate(-78.957)" fill="#111412" font-size="20" font-family="Rubik-Medium, Rubik" font-weight="500"><tspan x="0" y="0">ט</tspan></text>
    <text id="מ" transform="translate(47.172 87.814) rotate(-67.126)" fill="#111412" font-size="20" font-family="Rubik-Medium, Rubik" font-weight="500"><tspan x="0" y="0">מ</tspan></text>
    <text id="_17" data-name=" " transform="translate(52.383 76.17) rotate(-59.127)" fill="#111412" font-size="20" font-family="Rubik-Medium, Rubik" font-weight="500"><tspan x="0" y="0"> </tspan></text>
    <text id="_18" data-name=" " transform="translate(54.644 72.38) rotate(-54.941)" fill="#111412" font-size="20" font-family="Rubik-Medium, Rubik" font-weight="500"><tspan x="0" y="0"> </tspan></text>
    <text id="_19" data-name=" " transform="matrix(0.633, -0.774, 0.774, 0.633, 57.184, 68.756)" fill="#111412" font-size="20" font-family="Rubik-Medium, Rubik" font-weight="500"><tspan x="0" y="0"> </tspan></text>
    <text id="_20" data-name=" " transform="matrix(0.633, -0.774, 0.774, 0.633, 57.184, 68.756)" fill="#111412" font-size="20" font-family="Rubik-Medium, Rubik" font-weight="500"><tspan x="0" y="0"> </tspan></text>
    <text id="_21" data-name=" " transform="translate(59.981 65.386) rotate(-46.45)" fill="#111412" font-size="20" font-family="Rubik-Medium, Rubik" font-weight="500"><tspan x="0" y="0"> </tspan></text>
    <text id="_22" data-name=" " transform="matrix(0.741, -0.672, 0.672, 0.741, 62.813, 62.168)" fill="#111412" font-size="20" font-family="Rubik-Medium, Rubik" font-weight="500"><tspan x="0" y="0"> </tspan></text>
    <text id="_23" data-name=" " transform="translate(66.045 59.192) rotate(-37.935)" fill="#111412" font-size="20" font-family="Rubik-Medium, Rubik" font-weight="500"><tspan x="0" y="0"> </tspan></text>
    <text id="_24" data-name=" " transform="translate(69.504 56.455) rotate(-33.677)" fill="#111412" font-size="20" font-family="Rubik-Medium, Rubik" font-weight="500"><tspan x="0" y="0"> </tspan></text>
    <text id="ן" transform="matrix(0.874, -0.487, 0.487, 0.874, 73.103, 53.999)" fill="#111412" font-size="20" font-family="Rubik-Medium, Rubik" font-weight="500"><tspan x="0" y="0">ן</tspan></text>
    <text id="ד" transform="translate(77.3 51.368) rotate(-21.551)" fill="#111412" font-size="20" font-family="Rubik-Medium, Rubik" font-weight="500"><tspan x="0" y="0">ד</tspan></text>
    <text id="_25" data-name=" " transform="matrix(0.968, -0.252, 0.252, 0.968, 87.215, 47.594)" fill="#111412" font-size="20" font-family="Rubik-Medium, Rubik" font-weight="500"><tspan x="0" y="0"> </tspan></text>
    <text id="ת-3" data-name="ת" transform="translate(91.14 46.165) rotate(-6.177)" fill="#111412" font-size="20" font-family="Rubik-Medium, Rubik" font-weight="500"><tspan x="0" y="0">ת</tspan></text>
    <text id="ר-2" data-name="ר" transform="translate(103.93 44.806) rotate(4.832)" fill="#111412" font-size="20" font-family="Rubik-Medium, Rubik" font-weight="500"><tspan x="0" y="0">ר</tspan></text>
    <text id="נ" transform="translate(114.417 45.757) rotate(13.845)" fill="#111412" font-size="20" font-family="Rubik-Medium, Rubik" font-weight="500"><tspan x="0" y="0">נ</tspan></text>
    <text id="כ" transform="translate(122.288 47.574) rotate(22.897)" fill="#111412" font-size="20" font-family="Rubik-Medium, Rubik" font-weight="500"><tspan x="0" y="0">כ</tspan></text>
  </g>
</svg>
