<svg xmlns="http://www.w3.org/2000/svg" width="72" height="72" viewBox="0 0 72 72">
  <g id="Group_185" data-name="Group 185" transform="translate(-85 -1)">
    <path id="Path_520" data-name="Path 520" d="M138.108,26.571A18,18,0,0,1,141,36.35a17.809,17.809,0,0,1-3.825,11.087L126.328,36.483Zm.347-2.906L123.38,36.35l13.876,14.01a19.965,19.965,0,0,0,1.2-26.695" fill="#6c3321"/>
    <path id="Path_521" data-name="Path 521" d="M118.8,17.1V37.012a2,2,0,0,0,.579,1.408l13.965,14.1A19.024,19.024,0,0,1,121.045,57c-8.713,0-18.656-6.2-19.919-17.7a19.989,19.989,0,0,1,5-15.721A19.783,19.783,0,0,1,118.8,17.1m2-2.1a22,22,0,0,0,.245,44,20.976,20.976,0,0,0,15.172-6.42L120.8,37.012Z" fill="#6c3321"/>
    <path id="Path_522" data-name="Path 522" d="M124.577,17.123a16.266,16.266,0,0,1,9.208,4.363l-9.208,7.673Zm-2-2.123V33.43l14.111-11.76A18.279,18.279,0,0,0,122.577,15" fill="#6c3321"/>
    <path id="Path_523" data-name="Path 523" d="M121,73a36,36,0,1,1,36-36,36.04,36.04,0,0,1-36,36m0-70a34,34,0,1,0,34,34A34.038,34.038,0,0,0,121,3" fill="#6c3321"/>
  </g>
</svg>
