<svg xmlns="http://www.w3.org/2000/svg" width="72" height="72" viewBox="0 0 72 72">
  <g id="Group_187" data-name="Group 187" transform="translate(-1251 -1784)">
    <path id="Path_524" data-name="Path 524" d="M36,49.977a1,1,0,0,1-.743-.33l-7.49-8.29a5.768,5.768,0,0,1,0-7.572,4.623,4.623,0,0,1,6.98,0L36,35.171l1.253-1.386a4.84,4.84,0,0,1,1.584-1.172,4.507,4.507,0,0,1,1.9-.418,4.664,4.664,0,0,1,3.49,1.591,5.769,5.769,0,0,1,0,7.571l-7.49,8.29a1,1,0,0,1-.742.33M31.257,34.195a2.687,2.687,0,0,0-2,.931,3.723,3.723,0,0,0,0,4.89L36,47.486l6.747-7.469h0a3.725,3.725,0,0,0,0-4.889,2.688,2.688,0,0,0-2.006-.932,2.537,2.537,0,0,0-1.067.233,2.875,2.875,0,0,0-.936.695l-2,2.209a1.03,1.03,0,0,1-1.483,0l-1.995-2.205a2.688,2.688,0,0,0-2.006-.932" transform="translate(1251 1784)" fill="#6c3321"/>
    <path id="Path_525" data-name="Path 525" d="M52.3,58H19.7a1,1,0,0,1-1-1V31.635l-4,3.98A1,1,0,0,1,13.3,34.2l22-21.906a1,1,0,0,1,1.411,0l22,21.906a1,1,0,0,1-1.411,1.418l-4-3.981V57a1,1,0,0,1-1,1M20.7,56H51.3V29.642L36,14.411,20.7,29.643Z" transform="translate(1251 1784)" fill="#6c3321"/>
    <path id="Path_526" data-name="Path 526" d="M36,72A36,36,0,1,1,72,36,36.04,36.04,0,0,1,36,72M36,2A34,34,0,1,0,70,36,34.038,34.038,0,0,0,36,2" transform="translate(1251 1784)" fill="#6c3321"/>
  </g>
</svg>
