<svg xmlns="http://www.w3.org/2000/svg" width="72" height="72" viewBox="0 0 72 72">
  <g id="Group_186" data-name="Group 186" transform="translate(-1421 -1785)">
    <path id="Path_527" data-name="Path 527" d="M206,19.532l5,10.176a2,2,0,0,0,1.506,1.1l11.2,1.634L215.6,40.375a2,2,0,0,0-.572,1.766l1.913,11.2-10.009-5.281a2,2,0,0,0-1.866,0l-10.009,5.281,1.913-11.2a2,2,0,0,0-.572-1.766l-8.112-7.936,11.2-1.634a2,2,0,0,0,1.506-1.1ZM206,15l-6.8,13.826L184,31.043,195,41.8,192.4,57,206,49.826,219.6,57,217,41.8l11-10.761-15.2-2.217Z" transform="translate(1251 1784)" fill="#6c3321"/>
    <path id="Path_528" data-name="Path 528" d="M206,73a36,36,0,1,1,36-36,36.04,36.04,0,0,1-36,36m0-70a34,34,0,1,0,34,34A34.038,34.038,0,0,0,206,3" transform="translate(1251 1784)" fill="#6c3321"/>
  </g>
</svg>
